# xmcd CD database file
#
# Track frame offsets:
#	150
#	19280
#	35092
#	49225
#	63115
#	80900
#	97715
#	115082
#	128460
#	140147
#
# Disc length: 2061 seconds
#
# Revision: 2
# Processed by: cddbd v1.5.2PL0 Copyright (c) Steve Scherf et al.
# Submitted via: CDex 1.79
#
DISCID=84080b0a
DTITLE=Johnny Paycheck - Mr. Hag Told My Story
DYEAR=1981
DGENRE=Country
TTITLE0=Turnin' Off A Memory (featuring Merle Haggard)
TTITLE1=I've Got A Yearning
TTITLE2=Carolyn (featuring Merle Haggard)
TTITLE3=I'll Leave The Bottle On The Bar
TTITLE4=All Night Lady
TTITLE5=I Can't Hold Myself In Line (featuring Merle Haggard)
TTITLE6=Yesterday's News Just Hit Home Today
TTITLE7=You Don't Have Very Far To Go
TTITLE8=No More You And Me
TTITLE9=Someone Told My Story
EXTD=YEAR: 1981
EXTT0=
EXTT1=
EXTT2=
EXTT3=
EXTT4=
EXTT5=
EXTT6=
EXTT7=
EXTT8=
EXTT9=
PLAYORDER=
